# xmcd
#
# Track frame offsets: 
#        150
#        15237
#        31437
#        48537
#        63112
#        77262
#        93500
#        107362
#        125550
#        139672
#
# Disc length: 2062 seconds
#
# Revision: 2
# Processed by: cddbd v1.4PL0 Copyright (c) Steve Scherf et al.
# Submitted via: ExactAudioCopy v0.90a11
#
DISCID=70080c0a
DTITLE=McBride and The Ride - Country's Best
DYEAR=1900
DGENRE=
TTITLE0=Sacred Ground
TTITLE1=Hurry Sundown
TTITLE2=Just One Night
TTITLE3=Felicia
TTITLE4=Every Step Of The Way
TTITLE5=Same Old Star
TTITLE6=No More Cryin'
TTITLE7=Going Out Of My Mind
TTITLE8=Love On The Loose, Heart On The Run
TTITLE9=Can I Count On You
EXTD=
EXTT0=
EXTT1=
EXTT2=
EXTT3=
EXTT4=
EXTT5=
EXTT6=
EXTT7=
EXTT8=
EXTT9=
PLAYORDER=
